<svg width="32" height="32" viewBox="0 0 32 32" fill="none" xmlns="http://www.w3.org/2000/svg">
<path fill-rule="evenodd" clip-rule="evenodd" d="M27.7215 4.27907C27.3523 3.90991 26.7538 3.9099 26.3846 4.27907L16.0001 14.6637L5.61547 4.27907C5.2463 3.9099 4.64776 3.90991 4.27859 4.27907C3.90942 4.64824 3.90942 5.24679 4.27859 5.61596L14.6632 16.0005L4.27859 26.3851C3.90942 26.7543 3.90942 27.3528 4.27859 27.722C4.64776 28.0912 5.2463 28.0912 5.61547 27.722L16.0001 17.3374L26.3846 27.722C26.7538 28.0912 27.3524 28.0912 27.7215 27.722C28.0907 27.3528 28.0907 26.7543 27.7215 26.3851L17.3369 16.0005L27.7215 5.61596C28.0907 5.24679 28.0907 4.64824 27.7215 4.27907Z" fill="white"/>
</svg>
