<svg width="60" height="60" viewBox="0 0 60 60" fill="none" xmlns="http://www.w3.org/2000/svg">
<circle cx="30" cy="30" r="29" stroke="white" stroke-width="2"/>
<path d="M31 14.3181C31 13.7658 30.5523 13.3181 30 13.3181C29.4477 13.3181 29 13.7658 29 14.3181H31ZM29.2929 46.3889C29.6834 46.7794 30.3166 46.7794 30.7071 46.3889L37.0711 40.0249C37.4616 39.6344 37.4616 39.0012 37.0711 38.6107C36.6805 38.2202 36.0474 38.2202 35.6569 38.6107L30 44.2675L24.3431 38.6107C23.9526 38.2202 23.3195 38.2202 22.9289 38.6107C22.5384 39.0012 22.5384 39.6344 22.9289 40.0249L29.2929 46.3889ZM29 14.3181V45.6818H31V14.3181H29Z" fill="white"/>
</svg>
